<svg id="SvgjsSvg1012" xmlns="http://www.w3.org/2000/svg" version="1.1" xmlns:xlink="http://www.w3.org/1999/xlink" xmlns:svgjs="http://svgjs.com/svgjs" width="24" height="28"><defs id="SvgjsDefs1013"></defs><path id="SvgjsPath1014" d="M208.22 430.63L207 431.33L207 444L218 437.67L218 425Z " fill="#ffffff" fill-opacity="1" transform="matrix(1,0,0,1,-194,-416)"></path><path id="SvgjsPath1015" d="M210 418.46L205.92 416L195 422.54L199.09 425Z " fill="#ffffff" fill-opacity="1" transform="matrix(1,0,0,1,-194,-416)"></path><path id="SvgjsPath1016" d="M217 422.69L212.18 420L201 426.31L201.64 426.64L205.82 429L209.98 426.65Z " fill="#ffffff" fill-opacity="1" transform="matrix(1,0,0,1,-194,-416)"></path><path id="SvgjsPath1017" d="M200.24 431.71L198.20000000000002 430.65999999999997L198.20000000000002 427.40999999999997L194.00000000000003 424.99999999999994L194.00000000000003 437.66999999999996L205.00000000000003 443.99999999999994L205.00000000000003 431.3299999999999L200.24000000000004 428.5999999999999Z " fill="#ffffff" fill-opacity="1" transform="matrix(1,0,0,1,-194,-416)"></path></svg>