<svg id="SvgjsSvg1021" xmlns="http://www.w3.org/2000/svg" version="1.1" xmlns:xlink="http://www.w3.org/1999/xlink" xmlns:svgjs="http://svgjs.com/svgjs" width="25" height="33"><defs id="SvgjsDefs1022"></defs><path id="SvgjsPath1023" d="M682.37 419.72C682.3100000000001 419.67 682.23 419.69000000000005 682.19 419.74C682.0600000000001 419.93 681.7700000000001 420 681.4300000000001 419.99C681.5300000000001 419.96000000000004 681.6200000000001 419.91 681.6700000000001 419.82C681.84 419.51 681.6700000000001 419.24 681.4200000000001 419.02C681.33 418.94 681.23 418.89 681.1200000000001 418.85999999999996C681.7900000000001 417.68999999999994 682.5200000000001 416.29999999999995 683.0100000000001 414.98999999999995C684.1500000000001 411.94999999999993 679.4200000000001 417.0799999999999 677.7900000000001 416.16999999999996C676.1600000000001 415.27 676.82 412.42999999999995 674.0500000000001 415.15C672.1 417.08 675.1300000000001 418.84 677.09 419.71C676.69 419.77 676.3000000000001 419.79999999999995 675.9100000000001 419.79999999999995C675.46 419.79999999999995 675.0200000000001 419.78999999999996 674.58 419.74999999999994C674.23 419.71999999999997 673.33 419.68999999999994 673.1600000000001 419.28999999999996C673.1100000000001 419.15 672.8900000000001 419.21 672.94 419.34999999999997C673.1300000000001 419.79999999999995 673.7800000000001 419.87999999999994 674.2 419.92999999999995C674.6700000000001 419.98999999999995 675.1400000000001 420.0199999999999 675.61 420.03L675.6 420.03C674.44 420.17999999999995 673.27 420.35999999999996 672.15 420.7C671.75 420.82 670.74 421.09 670.8199999999999 421.67C670.8399999999999 421.81 671.06 421.81 671.04 421.67C670.9599999999999 421.01 672.9399999999999 420.71000000000004 673.3499999999999 420.63C674.4899999999999 420.38 675.6499999999999 420.23 676.8199999999999 420.11C673.9 421.53000000000003 669.9799999999999 425.34000000000003 669.1099999999999 430.15000000000003C669.7899999999998 429.94000000000005 670.5199999999999 429.82000000000005 671.2699999999999 429.82000000000005C673.4599999999999 429.82000000000005 675.4999999999999 430.78000000000003 676.8799999999999 432.45000000000005L676.9199999999998 432.50000000000006C677.4199999999998 432.39000000000004 677.9399999999998 432.33000000000004 678.4699999999998 432.33000000000004C682.4499999999998 432.33000000000004 685.6999999999998 435.52000000000004 685.6999999999998 439.45000000000005C685.6999999999998 439.82000000000005 685.6699999999998 440.19000000000005 685.6099999999998 440.55000000000007C688.1599999999997 438.9800000000001 689.8199999999998 436.2200000000001 689.8199999999998 432.1000000000001C689.8199999999998 426.44000000000005 685.9199999999998 422.5200000000001 681.9699999999998 420.5800000000001C682.4499999999998 420.4600000000001 682.8099999999998 420.1800000000001 682.3699999999998 419.7200000000001ZM672.2 439.95C672.2 443.25 674.9200000000001 445.93 678.2700000000001 445.93C681.6200000000001 445.93 684.3400000000001 443.25 684.3400000000001 439.95C684.3400000000001 436.64 681.6200000000001 433.96999999999997 678.2700000000001 433.96999999999997C674.9200000000001 433.96999999999997 672.2 436.64 672.2 439.95ZM671.6 442.06C671.4300000000001 442.08 671.25 442.09 671.07 442.09C668.46 442.09 666.35 440.01 666.35 437.44C666.35 434.87 668.46 432.79 671.07 432.79C672.4300000000001 432.79 673.6500000000001 433.36 674.5200000000001 434.26000000000005C674.9200000000001 434.02000000000004 675.3400000000001 433.82000000000005 675.7900000000001 433.6700000000001C674.6800000000001 432.32000000000005 672.9800000000001 431.4600000000001 671.07 431.4600000000001C667.72 431.4600000000001 665 434.1400000000001 665 437.4400000000001C665 440.7400000000001 667.72 443.42000000000013 671.07 443.42000000000013C671.45 443.42000000000013 671.82 443.3800000000001 672.1800000000001 443.3200000000001C671.95 442.92000000000013 671.7500000000001 442.5000000000001 671.6 442.0600000000001ZM673.55 439.95C673.55 437.38 675.66 435.3 678.27 435.3C680.88 435.3 682.99 437.38 682.99 439.95C682.99 442.52 680.88 444.59999999999997 678.27 444.59999999999997C675.66 444.59999999999997 673.55 442.52 673.55 439.95ZM672.2 436.56L672.2 433.97L670.96 433.97L670.9100000000001 434.24C670.83 434.6 670.6100000000001 435.1 669.5300000000001 435.1L669.19 435.1L669.19 436.39000000000004L669.5300000000001 436.39000000000004C670.0000000000001 436.39000000000004 670.3900000000001 436.34000000000003 670.71 436.25000000000006L670.71 440.96000000000004L671.33 440.96000000000004C671.2800000000001 440.63000000000005 671.24 440.29 671.24 439.95000000000005C671.24 438.71000000000004 671.59 437.55000000000007 672.2 436.56000000000006ZM681 419.07C681.03 419.08 681.05 419.08 681.08 419.09C681.4000000000001 419.17999999999995 681.5 419.4 681.39 419.72999999999996C681.27 419.78 681.11 419.75999999999993 680.98 419.74999999999994C680.86 419.73999999999995 680.74 419.71999999999997 680.62 419.69999999999993C680.74 419.49999999999994 680.87 419.2899999999999 681 419.06999999999994ZM681.11 420.19C681.57 420.24 682.03 420.2 682.28 419.98C682.47 420.29 681.88 420.38 681.64 420.40000000000003C681.62 420.40000000000003 681.61 420.40000000000003 681.6 420.40000000000003C681.4300000000001 420.33000000000004 681.27 420.26000000000005 681.11 420.19000000000005ZM673.55 434.25C673.55 434.24 673.55 434.24 673.56 434.24C673.55 434.24 673.55 434.24 673.55 434.23ZM679.39 436.48L679.39 443.46000000000004L677.91 443.46000000000004L677.91 438.75000000000006C677.5899999999999 438.8500000000001 677.1899999999999 438.90000000000003 676.7199999999999 438.90000000000003L676.3899999999999 438.90000000000003L676.3899999999999 437.61L676.7199999999999 437.61C677.81 437.61 678.0299999999999 437.11 678.0999999999999 436.74L678.1499999999999 436.48Z " fill="#ffffff" fill-opacity="1" transform="matrix(1,0,0,1,-665,-413)"></path></svg>