<svg id="SvgjsSvg1018" xmlns="http://www.w3.org/2000/svg" version="1.1" xmlns:xlink="http://www.w3.org/1999/xlink" xmlns:svgjs="http://svgjs.com/svgjs" width="30" height="27"><defs id="SvgjsDefs1019"></defs><path id="SvgjsPath1020" d="M455.41 443.39C455.41 443.78999999999996 455.09000000000003 444.12 454.70000000000005 444.12L451.58000000000004 444.12C451.19000000000005 444.12 450.87000000000006 443.79 450.87000000000006 443.39L450.87000000000006 442.09999999999997C450.82000000000005 442.23999999999995 450.7200000000001 442.35999999999996 450.58000000000004 442.37999999999994C447.46000000000004 442.8999999999999 444.16 444.7099999999999 440.87000000000006 444.7099999999999C437.7900000000001 444.7099999999999 433.80000000000007 444.0799999999999 431.56000000000006 441.75999999999993C429.07000000000005 439.16999999999996 426.9200000000001 436.8299999999999 426.37000000000006 436.0199999999999C425.25000000000006 434.3999999999999 426.93000000000006 433.00999999999993 428.13000000000005 434.2899999999999C429.16 435.3799999999999 431.38000000000005 437.7799999999999 433.07000000000005 438.9599999999999C433.32000000000005 440.0399999999999 434.76000000000005 441.0799999999999 436.21000000000004 441.0799999999999C437.67 441.0799999999999 444.53000000000003 441.0799999999999 444.53000000000003 441.0799999999999C444.53000000000003 441.0799999999999 443.99 440.3599999999999 443.33000000000004 440.29999999999995C443.33000000000004 440.29999999999995 437.18000000000006 440.29999999999995 436.27000000000004 440.29999999999995C435.36 440.29999999999995 433.81000000000006 439.53999999999996 433.81000000000006 437.85999999999996C433.81000000000006 435.84999999999997 435.4800000000001 435.42999999999995 436.27000000000004 435.42999999999995C436.86 435.42999999999995 440.6 435.42999999999995 442.38000000000005 435.42999999999995C442.38000000000005 435.42999999999995 444.74000000000007 433.74999999999994 446.97 433.74999999999994C448.68 433.74999999999994 450.08000000000004 434.36999999999995 450.64000000000004 434.65999999999997C450.75000000000006 434.71 450.83000000000004 434.80999999999995 450.87000000000006 434.92999999999995L450.87000000000006 433.30999999999995C450.87000000000006 432.90999999999997 451.19000000000005 432.5799999999999 451.58000000000004 432.5799999999999L454.70000000000005 432.5799999999999C455.09000000000003 432.5799999999999 455.41 432.9099999999999 455.41 433.30999999999995ZM432.9 420.72C432.9 419.22 434.10999999999996 418 435.59 418L439.67999999999995 418L439.67999999999995 420.05L441.59 420.05L441.59 418L445.65999999999997 418C447.14 418 448.34 419.22 448.34 420.72L448.34 429.8C448.34 431.31 447.14 432.52000000000004 445.65999999999997 432.52000000000004L441.54999999999995 432.52000000000004L441.54999999999995 430.90000000000003L439.75999999999993 430.90000000000003L439.75999999999993 432.52000000000004L435.5899999999999 432.52000000000004C434.1099999999999 432.52000000000004 432.8999999999999 431.31000000000006 432.8999999999999 429.8ZM439.98 424.99L439.98 429.12L441.45000000000005 429.12L441.45000000000005 424.99C442.47 424.99 443.34000000000003 424.99 443.34000000000003 424.99L440.72 421.81L438.09000000000003 424.99C438.14000000000004 424.99 438.99 424.99 439.98 424.99ZM433.4 436.42C433.58 436.73 433.17999999999995 437.22 432.76 437.32C432.40999999999997 437.02 428.15999999999997 433.26 428.15999999999997 433.26C428.15999999999997 433.26 428.34 432.55 429.15 432.88C430.13 433.28 433.01 435.76 433.4 436.42ZM430.86 432.04C430.05 431.72 429.87 432.43 429.87 432.43C429.87 432.43 433.24 435.28000000000003 433.58 435.58C434 435.47999999999996 434.4 434.99 434.21999999999997 434.68C433.83 434.02 431.84 432.45 430.85999999999996 432.04Z " fill="#ffffff" fill-opacity="1" transform="matrix(1,0,0,1,-426,-418)"></path></svg>