<svg id="SvgjsSvg1024" xmlns="http://www.w3.org/2000/svg" version="1.1" xmlns:xlink="http://www.w3.org/1999/xlink" xmlns:svgjs="http://svgjs.com/svgjs" width="13" height="11"><defs id="SvgjsDefs1025"></defs><path id="SvgjsPath1026" d="M220.66 569C219.29 569 218.14 569.39 217.5 570.01C216.86 569.39 215.71 569 214.34 569L211.74 569C211.33 569 211 569.33 211 569.73L211 578.14C211 578.55 211.33 578.87 211.74 578.87L214.34 578.87C215.33 578.87 216.41 579.29 216.8 579.69C216.97 579.87 217.21 579.97 217.46 579.97L217.54000000000002 579.97C217.79000000000002 579.97 218.03000000000003 579.87 218.20000000000002 579.69C218.59 579.2900000000001 219.66000000000003 578.87 220.66000000000003 578.87L223.26000000000002 578.87C223.67000000000002 578.87 224.00000000000003 578.55 224.00000000000003 578.14L224.00000000000003 569.73C224.00000000000003 569.33 223.67000000000002 569 223.26000000000002 569ZM214.34 577.78L212.11 577.78L212.11 570.1L214.34 570.1C215.93 570.1 216.94 570.75 216.94 571.19L216.94 578.3800000000001C216.28 578.0000000000001 215.38 577.7800000000001 214.34 577.7800000000001ZM220.66 577.78C219.62 577.78 218.72 578 218.06 578.38L218.06 571.1899999999999C218.06 570.7499999999999 219.07 570.0999999999999 220.66 570.0999999999999L222.89 570.0999999999999L222.89 577.7799999999999Z " fill="#ffffff" fill-opacity="1" transform="matrix(1,0,0,1,-211,-569)"></path></svg>