<svg id="SvgjsSvg1051" xmlns="http://www.w3.org/2000/svg" version="1.1" xmlns:xlink="http://www.w3.org/1999/xlink" xmlns:svgjs="http://svgjs.com/svgjs" width="25" height="15"><defs id="SvgjsDefs1052"></defs><path id="SvgjsPath1053" d="M849.76 2508.71C849.76 2506.85 848.25 2505.35 846.4 2505.35C845.5799999999999 2505.35 844.84 2505.64 844.25 2506.12C844.14 2504.38 842.69 2503 840.91 2503C839.54 2503 838.36 2503.82 837.85 2505C836.9 2504.37 835.6700000000001 2503.99 834.44 2503.99C831.1700000000001 2503.99 828.4200000000001 2506.64 828.4200000000001 2509.91L828.4200000000001 2509.92C826.8000000000001 2510.05 825.0000000000001 2511.6800000000003 825.0000000000001 2513.6800000000003C825.0000000000001 2515.76 826.7400000000001 2517.4500000000003 828.8200000000002 2517.4500000000003C830.3000000000002 2517.4500000000003 831.6000000000001 2516.6000000000004 832.2200000000001 2515.36C832.9200000000002 2515.6600000000003 833.7100000000002 2515.83 834.5300000000001 2515.83C836.3600000000001 2515.83 838.0000000000001 2514.99 839.09 2513.69C839.74 2515.21 841.26 2516.28 843.02 2516.28C845.39 2516.28 847.3199999999999 2514.36 847.3199999999999 2511.9900000000002C847.3199999999999 2511.9700000000003 847.3199999999999 2511.9500000000003 847.3199999999999 2511.94C848.7299999999999 2511.54 849.76 2510.25 849.76 2508.71Z " fill="#ffffff" fill-opacity="1" transform="matrix(1,0,0,1,-825,-2503)"></path></svg>