<svg id="SvgjsSvg1075" xmlns="http://www.w3.org/2000/svg" version="1.1" xmlns:xlink="http://www.w3.org/1999/xlink" xmlns:svgjs="http://svgjs.com/svgjs" width="30" height="28"><defs id="SvgjsDefs1076"></defs><path id="SvgjsPath1077" d="M1641.32 4971.86C1642.6599999999999 4971.86 1643.74 4972.929999999999 1643.74 4974.25L1643.74 4982.24C1643.74 4983.5599999999995 1642.66 4984.63 1641.32 4984.63L1632.26 4984.63C1630.92 4984.63 1629.84 4983.56 1629.84 4982.24L1629.84 4974.25C1629.84 4972.93 1630.9199999999998 4971.86 1632.26 4971.86L1635.95 4971.86L1635.95 4973.66L1637.66 4973.66L1637.66 4971.86ZM1633.4 4957C1634.74 4957 1635.8200000000002 4958.07 1635.8200000000002 4959.39L1635.8200000000002 4967.38C1635.8200000000002 4968.7 1634.7400000000002 4969.77 1633.4 4969.77L1624.3400000000001 4969.77C1623.0000000000002 4969.77 1621.92 4968.700000000001 1621.92 4967.38L1621.92 4959.39C1621.92 4958.070000000001 1623 4957 1624.3400000000001 4957L1628.0200000000002 4957L1628.0200000000002 4958.8L1629.7400000000002 4958.8L1629.7400000000002 4957ZM1625.48 4971.86C1626.81 4971.86 1627.89 4972.929999999999 1627.89 4974.25L1627.89 4982.24C1627.89 4983.5599999999995 1626.8100000000002 4984.63 1625.48 4984.63L1616.41 4984.63C1615.0800000000002 4984.63 1614 4983.56 1614 4982.24L1614 4974.25C1614 4972.93 1615.08 4971.86 1616.41 4971.86L1620.1000000000001 4971.86L1620.1000000000001 4973.66L1621.8100000000002 4973.66L1621.8100000000002 4971.86ZM1621.71 4978.8C1623.22 4978.8 1623.23 4978.81 1623.23 4978.81L1620.65 4975.76L1618.0500000000002 4978.8C1618.1100000000001 4978.8 1618.1100000000001 4978.8 1619.5700000000002 4978.8L1619.5700000000002 4982.320000000001L1621.7100000000003 4982.320000000001ZM1637.55 4978.8C1639.06 4978.8 1639.08 4978.81 1639.08 4978.81L1636.49 4975.76L1633.9 4978.8C1633.95 4978.8 1633.95 4978.8 1635.41 4978.8L1635.41 4982.320000000001L1637.5500000000002 4982.320000000001ZM1629.63 4963.94C1631.14 4963.94 1631.16 4963.95 1631.16 4963.95L1628.5700000000002 4960.9L1625.9800000000002 4963.94C1626.0300000000002 4963.94 1626.0300000000002 4963.94 1627.4900000000002 4963.94L1627.4900000000002 4967.46L1629.6300000000003 4967.46Z " fill="#ffffff" fill-opacity="1" transform="matrix(1,0,0,1,-1614,-4957)"></path></svg>