<svg id="SvgjsSvg1065" xmlns="http://www.w3.org/2000/svg" version="1.1" xmlns:xlink="http://www.w3.org/1999/xlink" xmlns:svgjs="http://svgjs.com/svgjs" width="27" height="35"><defs id="SvgjsDefs1066"></defs><path id="SvgjsPath1067" d="M1099.58 4961.17C1099.53 4961.11 1099.4299999999998 4961.13 1099.3899999999999 4961.2C1099.2599999999998 4961.4 1098.9399999999998 4961.47 1098.58 4961.46C1098.6899999999998 4961.43 1098.78 4961.37 1098.83 4961.28C1099.02 4960.94 1098.84 4960.65 1098.57 4960.41C1098.48 4960.32 1098.37 4960.2699999999995 1098.25 4960.24C1098.97 4958.98 1099.75 4957.48 1100.27 4956.07C1101.49 4952.78 1096.43 4958.32 1094.69 4957.349999999999C1092.95 4956.37 1093.64 4953.299999999999 1090.68 4956.249999999999C1088.5900000000001 4958.319999999999 1091.8400000000001 4960.219999999999 1093.94 4961.159999999999C1093.51 4961.219999999999 1093.0900000000001 4961.259999999999 1092.67 4961.259999999999C1092.2 4961.259999999999 1091.73 4961.239999999999 1091.26 4961.199999999999C1090.8799999999999 4961.169999999999 1089.91 4961.1399999999985 1089.73 4960.699999999999C1089.67 4960.559999999999 1089.44 4960.619999999999 1089.5 4960.769999999999C1089.7 4961.249999999998 1090.39 4961.339999999998 1090.85 4961.399999999999C1091.35 4961.459999999999 1091.85 4961.489999999999 1092.36 4961.499999999999C1092.35 4961.499999999999 1092.34 4961.499999999999 1092.34 4961.499999999999C1091.1 4961.659999999999 1089.84 4961.859999999999 1088.6499999999999 4962.219999999999C1088.2199999999998 4962.349999999999 1087.1399999999999 4962.639999999999 1087.2199999999998 4963.2699999999995C1087.2499999999998 4963.419999999999 1087.4899999999998 4963.419999999999 1087.4699999999998 4963.2699999999995C1087.37 4962.5599999999995 1089.4899999999998 4962.24 1089.9299999999998 4962.15C1091.1499999999999 4961.879999999999 1092.3999999999999 4961.719999999999 1093.6499999999999 4961.589999999999C1090.5199999999998 4963.119999999999 1086.33 4967.23 1085.3899999999999 4972.419999999999C1086.1299999999999 4972.19 1086.9099999999999 4972.0599999999995 1087.7099999999998 4972.0599999999995C1090.0499999999997 4972.0599999999995 1092.2399999999998 4973.099999999999 1093.7199999999998 4974.9L1093.7499999999998 4974.95C1094.2899999999997 4974.83 1094.8399999999997 4974.7699999999995 1095.4099999999999 4974.7699999999995C1099.6799999999998 4974.7699999999995 1103.1499999999999 4978.209999999999 1103.1499999999999 4982.45C1103.1499999999999 4982.849999999999 1103.11 4983.25 1103.05 4983.63C1105.79 4981.9400000000005 1107.56 4978.96 1107.56 4974.53C1107.56 4968.41 1103.3899999999999 4964.19 1099.1499999999999 4962.099999999999C1099.6699999999998 4961.969999999999 1100.06 4961.669999999999 1099.58 4961.169999999999ZM1088.7 4982.99C1088.7 4986.55 1091.6100000000001 4989.44 1095.2 4989.44C1098.79 4989.44 1101.7 4986.549999999999 1101.7 4982.99C1101.7 4979.42 1098.79 4976.54 1095.2 4976.54C1091.6100000000001 4976.54 1088.7 4979.42 1088.7 4982.99ZM1088.06 4985.27C1087.8799999999999 4985.290000000001 1087.69 4985.3 1087.5 4985.3C1084.71 4985.3 1082.44 4983.05 1082.44 4980.28C1082.44 4977.509999999999 1084.71 4975.259999999999 1087.5 4975.259999999999C1088.95 4975.259999999999 1090.26 4975.879999999999 1091.18 4976.849999999999C1091.6100000000001 4976.599999999999 1092.0600000000002 4976.379999999999 1092.54 4976.219999999999C1091.35 4974.759999999999 1089.54 4973.829999999999 1087.5 4973.829999999999C1083.91 4973.829999999999 1081 4976.719999999999 1081 4980.279999999999C1081 4983.839999999999 1083.91 4986.729999999999 1087.5 4986.729999999999C1087.9 4986.729999999999 1088.3 4986.689999999999 1088.69 4986.619999999999C1088.43 4986.189999999999 1088.22 4985.739999999999 1088.06 4985.269999999999ZM1090.14 4982.99C1090.14 4980.219999999999 1092.41 4977.969999999999 1095.2 4977.969999999999C1097.99 4977.969999999999 1100.25 4980.219999999999 1100.25 4982.99C1100.25 4985.76 1097.99 4988.01 1095.2 4988.01C1092.41 4988.01 1090.14 4985.76 1090.14 4982.99ZM1088.7 4979.33L1088.7 4976.54L1087.3700000000001 4976.54L1087.3200000000002 4976.83C1087.2400000000002 4977.22 1087.0100000000002 4977.76 1085.8500000000001 4977.76L1085.4800000000002 4977.76L1085.4800000000002 4979.150000000001L1085.8500000000001 4979.150000000001C1086.3500000000001 4979.150000000001 1086.7700000000002 4979.1 1087.1100000000001 4978.990000000001L1087.1100000000001 4984.070000000001L1087.7700000000002 4984.070000000001C1087.7200000000003 4983.72 1087.6800000000003 4983.360000000001 1087.6800000000003 4982.990000000001C1087.6800000000003 4981.650000000001 1088.0600000000004 4980.400000000001 1088.7000000000003 4979.330000000001ZM1098.12 4960.47C1098.1499999999999 4960.4800000000005 1098.1799999999998 4960.4800000000005 1098.2099999999998 4960.490000000001C1098.5499999999997 4960.590000000001 1098.6599999999999 4960.820000000001 1098.5399999999997 4961.18C1098.4099999999996 4961.240000000001 1098.2399999999998 4961.21 1098.0999999999997 4961.200000000001C1097.9699999999996 4961.1900000000005 1097.8499999999997 4961.170000000001 1097.7199999999996 4961.150000000001C1097.8499999999997 4960.93 1097.9799999999996 4960.710000000001 1098.1199999999997 4960.47ZM1098.23 4961.67C1098.74 4961.7300000000005 1099.22 4961.6900000000005 1099.49 4961.4400000000005C1099.69 4961.780000000001 1099.07 4961.88 1098.8 4961.910000000001C1098.79 4961.910000000001 1098.77 4961.910000000001 1098.76 4961.910000000001C1098.58 4961.830000000001 1098.41 4961.750000000001 1098.23 4961.670000000001ZM1090.15 4976.84C1090.15 4976.84 1090.15 4976.83 1090.16 4976.83C1090.15 4976.83 1090.15 4976.83 1090.15 4976.82ZM1096.4 4979.24L1096.4 4986.78L1094.8100000000002 4986.78L1094.8100000000002 4981.7C1094.4700000000003 4981.8 1094.0500000000002 4981.849999999999 1093.5500000000002 4981.849999999999L1093.1800000000003 4981.849999999999L1093.1800000000003 4980.459999999999L1093.5500000000002 4980.459999999999C1094.7100000000003 4980.459999999999 1094.9400000000003 4979.929999999999 1095.0200000000002 4979.529999999999L1095.0700000000002 4979.239999999999Z " fill="#ffffff" fill-opacity="1" transform="matrix(1,0,0,1,-1081,-4955)"></path></svg>