<svg id="SvgjsSvg1084" xmlns="http://www.w3.org/2000/svg" version="1.1" xmlns:xlink="http://www.w3.org/1999/xlink" xmlns:svgjs="http://svgjs.com/svgjs" width="25" height="26"><defs id="SvgjsDefs1085"></defs><path id="SvgjsPath1086" d="M1579 6521L1579 6528.86L1581.77 6529.259999999999L1581.77 6521.4Z " fill="#ffffff" fill-opacity="1" transform="matrix(1,0,0,1,-1561,-6509)"></path><path id="SvgjsPath1087" d="M1574 6533.07L1585.63 6534.74L1585.63 6511.41L1574 6509.74ZM1576.74 6530.08L1576.74 6518.84L1582.89 6519.7300000000005L1582.89 6530.96ZM1576.74 6517.72L1576.74 6516.030000000001L1582.89 6516.910000000001L1582.89 6518.6ZM1576.74 6514.95L1576.74 6513.2699999999995L1582.89 6514.15L1582.89 6515.839999999999Z " fill="#ffffff" fill-opacity="1" transform="matrix(1,0,0,1,-1561,-6509)"></path><path id="SvgjsPath1088" d="M1561 6534.74L1572.63 6533.07L1572.63 6509.74L1561 6511.41ZM1563.74 6530.96L1563.74 6519.7300000000005L1569.89 6518.84L1569.89 6530.08ZM1563.74 6518.6L1563.74 6516.910000000001L1569.89 6516.030000000001L1569.89 6517.72ZM1563.74 6515.84L1563.74 6514.150000000001L1569.89 6513.27L1569.89 6514.950000000001Z " fill="#ffffff" fill-opacity="1" transform="matrix(1,0,0,1,-1561,-6509)"></path><path id="SvgjsPath1089" d="M1565 6521.4L1565 6529.259999999999L1567.77 6528.86L1567.77 6521Z " fill="#ffffff" fill-opacity="1" transform="matrix(1,0,0,1,-1561,-6509)"></path></svg>