<svg id="SvgjsSvg1045" xmlns="http://www.w3.org/2000/svg" version="1.1" xmlns:xlink="http://www.w3.org/1999/xlink" xmlns:svgjs="http://svgjs.com/svgjs" width="17" height="24"><defs id="SvgjsDefs1046"></defs><path id="SvgjsPath1047" d="M837.67 2335.52C837.67 2335.4 837.63 2335.32 837.56 2335.24C837.52 2335.0499999999997 837.3299999999999 2334.93 837.13 2335.0499999999997C836.9 2335.0499999999997 836.71 2335.2 836.71 2335.4799999999996C831.85 2340.8399999999997 823.64 2354.4199999999996 833.97 2358.3199999999997C838.64 2360.0899999999997 843.9200000000001 2357.6899999999996 844.84 2352.49C845.35 2349.7 843.9200000000001 2346.74 842.3000000000001 2344.62C840.0300000000001 2341.58 837.8700000000001 2339.54 837.6700000000001 2335.52ZM831.85 2352.61C831.7 2352.02 831.62 2351.4300000000003 831.66 2350.84C831.89 2349.81 832.1999999999999 2348.83 832.55 2347.8500000000004C832.74 2348.7100000000005 833.12 2349.5800000000004 833.66 2350.2100000000005C834.9 2351.5900000000006 837.4 2352.4100000000003 838.1 2354.1500000000005C838.52 2355.2100000000005 836.86 2356.1100000000006 836.1700000000001 2356.3500000000004C835.44 2356.59 834.6300000000001 2356.1900000000005 834.0100000000001 2355.8C832.8900000000001 2355.13 832.2000000000002 2353.79 831.8500000000001 2352.61Z " fill="#ffffff" fill-opacity="1" transform="matrix(1,0,0,1,-828,-2335)"></path></svg>