
<svg width="26px" height="23px" viewBox="0 0 26 23" version="1.1" xmlns="http://www.w3.org/2000/svg" xmlns:xlink="http://www.w3.org/1999/xlink">
    <!-- Generator: Sketch 41 (35326) - http://www.bohemiancoding.com/sketch -->
    <desc>Created with Sketch.</desc>
    <defs></defs>
    <g id="oxygen" stroke="none" stroke-width="1" fill="none" fill-rule="evenodd">
        <g id="Capa_1" fill="#000">
            <g id="Group">
                <g id="Group-57" transform="translate(5.097032, 17.588239) rotate(-21.000000) translate(-5.097032, -17.588239) translate(1.597032, 15.088239)">
                    <ellipse id="Oval-Copy" cx="5.03666667" cy="3.01953125" rx="1.5" ry="1.48737981"></ellipse>
                    <ellipse id="Oval-Copy-3" cx="1" cy="0.991586538" rx="1" ry="0.991586538"></ellipse>
                </g>
                <g id="Group-64">
                    <path d="M12.9996417,5 C8.0369412,5 4,9.03622467 4,13.9996417 C4,18.9623423 8.0369412,23 12.9996417,23 C17.9616257,23 22,18.9616257 22,13.9996417 C22,9.0369412 17.9616257,5 12.9996417,5 L12.9996417,5 Z M12.9996417,21.3835038 C8.92759046,21.3835038 5.61506309,18.0709765 5.61506309,13.9974921 C5.61506309,9.9261574 8.92759046,6.61363003 12.9996417,6.61363003 C17.0724095,6.61363003 20.3849369,9.92687393 20.3849369,13.9974921 C20.3849369,18.0709765 17.0724095,21.3835038 12.9996417,21.3835038 L12.9996417,21.3835038 Z" id="Shape"></path>
                    <path d="M22,10.1352979 C22,8.46555055 20.6634241,7.11241998 19.0136187,7.11241998 C18.2889105,7.11241998 17.6254864,7.37487216 17.1070039,7.81015871 C17.0029183,6.24036968 15.7178988,5 14.1405642,5 C12.9212062,5 11.8754864,5.74205523 11.4148833,6.80269687 C10.5753891,6.22855195 9.4766537,5.89371615 8.38715953,5.89371615 C5.48394942,5.89371615 3.04280156,8.27597439 3.04280156,11.2161282 L3.04280156,11.2264687 C1.60262646,11.3416916 0,12.8095527 0,14.6068331 C0,16.4814212 1.5442607,18 3.39445525,18 C4.70719844,18 5.86235409,17.2343093 6.4114786,16.1224575 C7.03939689,16.3893413 7.73929961,16.5390326 8.46400778,16.5390326 C10.0899805,16.5390326 11.5491245,15.7900837 12.5155642,14.6156964 C13.0992218,15.9850763 14.44893,16.9447748 16.016537,16.9447748 C18.1215953,16.9447748 19.8312257,15.2164312 19.8312257,13.0848074 C19.8312257,13.0700352 19.8287938,13.0547707 19.8287938,13.0399985 C21.0821984,12.6805424 22,11.5174804 22,10.1352979 L22,10.1352979 Z" id="Shape-Copy-22"></path>
                    <path d="M25,15.1352979 C25,13.4655505 23.6634241,12.11242 22.0136187,12.11242 C21.2889105,12.11242 20.6254864,12.3748722 20.1070039,12.8101587 C20.0029183,11.2403697 18.7178988,10 17.1405642,10 C15.9212062,10 14.8754864,10.7420552 14.4148833,11.8026969 C13.5753891,11.2285519 12.4766537,10.8937161 11.3871595,10.8937161 C8.48394942,10.8937161 6.04280156,13.2759744 6.04280156,16.2161282 L6.04280156,16.2264687 C4.60262646,16.3416916 3,17.8095527 3,19.6068331 C3,21.4814212 4.5442607,23 6.39445525,23 C7.70719844,23 8.86235409,22.2343093 9.4114786,21.1224575 C10.0393969,21.3893413 10.7392996,21.5390326 11.4640078,21.5390326 C13.0899805,21.5390326 14.5491245,20.7900837 15.5155642,19.6156964 C16.0992218,20.9850763 17.44893,21.9447748 19.016537,21.9447748 C21.1215953,21.9447748 22.8312257,20.2164312 22.8312257,18.0848074 C22.8312257,18.0700352 22.8287938,18.0547707 22.8287938,18.0399985 C24.0821984,17.6805424 25,16.5174804 25,15.1352979 L25,15.1352979 Z" id="Shape-Copy-23" transform="translate(14.000000, 16.500000) scale(-1, -1) translate(-14.000000, -16.500000) "></path>
                    <circle id="Oval" cx="4.5" cy="5.5" r="2.5"></circle>
                    <ellipse id="Oval" cx="22" cy="5" rx="2" ry="2"></ellipse>
                    <ellipse id="Oval" cx="24" cy="1" rx="1" ry="1"></ellipse>
                    <ellipse id="Oval" cx="9" cy="2" rx="1" ry="1"></ellipse>
                </g>
            </g>
        </g>
    </g>
</svg>