<svg id="SvgjsSvg1048" xmlns="http://www.w3.org/2000/svg" version="1.1" xmlns:xlink="http://www.w3.org/1999/xlink" xmlns:svgjs="http://svgjs.com/svgjs" width="21" height="23"><defs id="SvgjsDefs1049"></defs><path id="SvgjsPath1050" d="M832.62 2438.97C831.09 2435.79 831.9 2433.9599999999996 833.08 2432.24C834.37 2430.3599999999997 834.7 2428.49 834.7 2428.49C834.7 2428.49 835.72 2429.81 835.3100000000001 2431.87C837.1 2429.88 837.44 2426.7 837.1700000000001 2425.49C841.22 2428.31 842.95 2434.4399999999996 840.6200000000001 2438.97C853.0200000000001 2431.9599999999996 843.7000000000002 2421.47 842.0800000000002 2420.29C842.6200000000001 2421.47 842.7200000000001 2423.47 841.6300000000001 2424.44C839.7800000000001 2417.44 835.2100000000002 2416 835.2100000000002 2416C835.7500000000001 2419.61 833.2500000000001 2423.56 830.8400000000001 2426.51C830.7500000000001 2425.07 830.6600000000002 2424.0800000000004 829.9100000000002 2422.7000000000003C829.7400000000002 2425.32 827.7300000000002 2427.4500000000003 827.1900000000002 2430.07C826.4600000000002 2433.6200000000003 827.7400000000001 2436.2200000000003 832.6200000000001 2438.9700000000003Z " fill="#ffffff" fill-opacity="1" transform="matrix(1,0,0,1,-826,-2416)"></path></svg>