<svg id="SvgjsSvg1068" xmlns="http://www.w3.org/2000/svg" version="1.1" xmlns:xlink="http://www.w3.org/1999/xlink" xmlns:svgjs="http://svgjs.com/svgjs" width="27" height="26"><defs id="SvgjsDefs1069"></defs><path id="SvgjsPath1070" d="M1368.51 4973L1366.16 4973L1366.16 4974.15C1366.16 4974.25 1366.0800000000002 4974.33 1365.99 4974.33L1365.24 4974.33C1365.14 4974.33 1365.06 4974.25 1365.06 4974.15L1365.06 4973L1362.71 4973C1362.32 4973 1362 4973.31 1362 4973.7L1362 4979.389999999999C1362 4979.7699999999995 1362.32 4980.089999999999 1362.71 4980.089999999999L1368.51 4980.089999999999C1368.9 4980.089999999999 1369.22 4979.7699999999995 1369.22 4979.389999999999L1369.22 4973.7C1369.22 4973.3099999999995 1368.9 4973 1368.51 4973Z " fill="#ffffff" fill-opacity="1" transform="matrix(1,0,0,1,-1347,-4961)"></path><path id="SvgjsPath1071" d="M1358.51 4973L1356.16 4973L1356.16 4974.15C1356.16 4974.25 1356.0800000000002 4974.33 1355.99 4974.33L1355.24 4974.33C1355.14 4974.33 1355.06 4974.25 1355.06 4974.15L1355.06 4973L1352.71 4973C1352.32 4973 1352 4973.31 1352 4973.7L1352 4979.389999999999C1352 4979.7699999999995 1352.32 4980.089999999999 1352.71 4980.089999999999L1358.51 4980.089999999999C1358.9 4980.089999999999 1359.22 4979.7699999999995 1359.22 4979.389999999999L1359.22 4973.7C1359.22 4973.3099999999995 1358.9 4973 1358.51 4973Z " fill="#ffffff" fill-opacity="1" transform="matrix(1,0,0,1,-1347,-4961)"></path><path id="SvgjsPath1072" d="M1368.51 4961L1366.16 4961L1366.16 4962.15C1366.16 4962.25 1366.0800000000002 4962.33 1365.99 4962.33L1365.24 4962.33C1365.14 4962.33 1365.06 4962.25 1365.06 4962.15L1365.06 4961L1362.71 4961C1362.32 4961 1362 4961.31 1362 4961.7L1362 4967.389999999999C1362 4967.7699999999995 1362.32 4968.089999999999 1362.71 4968.089999999999L1368.51 4968.089999999999C1368.9 4968.089999999999 1369.22 4967.7699999999995 1369.22 4967.389999999999L1369.22 4961.7C1369.22 4961.3099999999995 1368.9 4961 1368.51 4961Z " fill="#ffffff" fill-opacity="1" transform="matrix(1,0,0,1,-1347,-4961)"></path><path id="SvgjsPath1073" d="M1358.51 4961L1356.16 4961L1356.16 4962.15C1356.16 4962.25 1356.0800000000002 4962.33 1355.99 4962.33L1355.24 4962.33C1355.14 4962.33 1355.06 4962.25 1355.06 4962.15L1355.06 4961L1352.71 4961C1352.32 4961 1352 4961.31 1352 4961.7L1352 4967.389999999999C1352 4967.7699999999995 1352.32 4968.089999999999 1352.71 4968.089999999999L1358.51 4968.089999999999C1358.9 4968.089999999999 1359.22 4967.7699999999995 1359.22 4967.389999999999L1359.22 4961.7C1359.22 4961.3099999999995 1358.9 4961 1358.51 4961Z " fill="#ffffff" fill-opacity="1" transform="matrix(1,0,0,1,-1347,-4961)"></path><path id="SvgjsPath1074" d="M1371.64 4961C1371.51 4961 1371.4 4961.1 1371.4 4961.23L1371.4 4969.709999999999L1349.5500000000002 4969.709999999999L1349.5500000000002 4961.23C1349.5500000000002 4961.099999999999 1349.4400000000003 4961 1349.3100000000002 4961L1347.2400000000002 4961C1347.1100000000001 4961 1347.0000000000002 4961.1 1347.0000000000002 4961.23L1347.0000000000002 4986.75C1347.0000000000002 4986.88 1347.1100000000001 4986.98 1347.2400000000002 4986.98L1349.3100000000002 4986.98C1349.4400000000003 4986.98 1349.5500000000002 4986.879999999999 1349.5500000000002 4986.75L1349.5500000000002 4983.53L1371.4 4983.53L1371.4 4986.75C1371.4 4986.88 1371.51 4986.98 1371.64 4986.98L1373.71 4986.98C1373.8400000000001 4986.98 1373.95 4986.879999999999 1373.95 4986.75L1373.95 4961.23C1373.95 4961.099999999999 1373.8400000000001 4961 1373.71 4961ZM1349.55 4981.79L1349.55 4971.45L1371.3999999999999 4971.45L1371.3999999999999 4981.79ZM1347.78 4982.66C1347.78 4982.389999999999 1348 4982.18 1348.27 4982.18C1348.55 4982.18 1348.77 4982.39 1348.77 4982.66C1348.77 4982.93 1348.55 4983.139999999999 1348.27 4983.139999999999C1348 4983.139999999999 1347.78 4982.929999999999 1347.78 4982.66ZM1347.78 4970.58C1347.78 4970.3099999999995 1348 4970.1 1348.27 4970.1C1348.55 4970.1 1348.77 4970.31 1348.77 4970.58C1348.77 4970.85 1348.55 4971.0599999999995 1348.27 4971.0599999999995C1348 4971.0599999999995 1347.78 4970.849999999999 1347.78 4970.58ZM1372.18 4982.66C1372.18 4982.389999999999 1372.4 4982.18 1372.67 4982.18C1372.94 4982.18 1373.17 4982.39 1373.17 4982.66C1373.17 4982.93 1372.94 4983.139999999999 1372.67 4983.139999999999C1372.4 4983.139999999999 1372.18 4982.929999999999 1372.18 4982.66ZM1372.18 4970.58C1372.18 4970.3099999999995 1372.4 4970.1 1372.67 4970.1C1372.94 4970.1 1373.17 4970.31 1373.17 4970.58C1373.17 4970.85 1372.94 4971.0599999999995 1372.67 4971.0599999999995C1372.4 4971.0599999999995 1372.18 4970.849999999999 1372.18 4970.58Z " fill="#ffffff" fill-opacity="1" transform="matrix(1,0,0,1,-1347,-4961)"></path></svg>