<svg id="SvgjsSvg1054" xmlns="http://www.w3.org/2000/svg" version="1.1" xmlns:xlink="http://www.w3.org/1999/xlink" xmlns:svgjs="http://svgjs.com/svgjs" width="25" height="23"><defs id="SvgjsDefs1055"></defs><path id="SvgjsPath1056" d="M829 2597.5C829 2596.67157 829.67157 2596 830.5 2596C831.32843 2596 832 2596.67157 832 2597.5C832 2598.32843 831.32843 2599 830.5 2599C829.67157 2599 829 2598.32843 829 2597.5Z " fill="#ffffff" fill-opacity="1" transform="matrix(1,0,0,1,-824,-2579)"></path><path id="SvgjsPath1057" d="M826 2595C826 2594.44772 826.44772 2594 827 2594C827.55228 2594 828 2594.44772 828 2595C828 2595.55228 827.55228 2596 827 2596C826.44772 2596 826 2595.55228 826 2595Z " fill="#ffffff" fill-opacity="1" transform="matrix(1,0,0,1,-824,-2579)"></path><path id="SvgjsPath1058" d="M828 2593C828 2597.96 832.04 2602 837 2602C841.96 2602 846 2597.96 846 2593C846 2588.04 841.96 2584 837 2584C832.04 2584 828 2588.04 828 2593ZM829.62 2593C829.62 2588.93 832.93 2585.61 837 2585.61C841.07 2585.61 844.38 2588.9300000000003 844.38 2593C844.38 2597.07 841.07 2600.38 837 2600.38C832.93 2600.38 829.62 2597.07 829.62 2593Z " fill="#ffffff" fill-opacity="1" transform="matrix(1,0,0,1,-824,-2579)"></path><path id="SvgjsPath1059" d="M846 2589.14C846 2587.47 844.66 2586.1099999999997 843.01 2586.1099999999997C842.29 2586.1099999999997 841.63 2586.37 841.11 2586.8099999999995C841 2585.2399999999993 839.72 2583.9999999999995 838.14 2583.9999999999995C836.92 2583.9999999999995 835.88 2584.7399999999993 835.41 2585.7999999999997C834.5799999999999 2585.2299999999996 833.48 2584.89 832.39 2584.89C829.48 2584.89 827.04 2587.2799999999997 827.04 2590.22C827.04 2590.22 827.04 2590.22 827.04 2590.23C825.5999999999999 2590.34 824 2591.81 824 2593.61C824 2595.48 825.54 2597 827.39 2597C828.71 2597 829.86 2596.23 830.41 2595.12C831.04 2595.39 831.74 2595.54 832.4599999999999 2595.54C834.0899999999999 2595.54 835.55 2594.79 836.5199999999999 2593.62C837.0999999999999 2594.99 838.4499999999998 2595.94 840.0199999999999 2595.94C842.1199999999999 2595.94 843.8299999999998 2594.2200000000003 843.8299999999998 2592.08C843.8299999999998 2592.0699999999997 843.8299999999998 2592.0499999999997 843.8299999999998 2592.04C845.0799999999998 2591.68 845.9999999999998 2590.52 845.9999999999998 2589.14Z " fill="#ffffff" fill-opacity="1" transform="matrix(1,0,0,1,-824,-2579)"></path><path id="SvgjsPath1060" d="M827 2596.86C827 2598.53 828.34 2599.8900000000003 829.99 2599.8900000000003C830.71 2599.8900000000003 831.37 2599.63 831.89 2599.1900000000005C832 2600.7600000000007 833.28 2602.0000000000005 834.86 2602.0000000000005C836.08 2602.0000000000005 837.12 2601.2600000000007 837.59 2600.2000000000003C838.4200000000001 2600.7700000000004 839.52 2601.11 840.61 2601.11C843.52 2601.11 845.96 2598.7200000000003 845.96 2595.78C845.96 2595.78 845.96 2595.78 845.96 2595.77C847.4000000000001 2595.66 849 2594.19 849 2592.39C849 2590.52 847.46 2589 845.61 2589C844.29 2589 843.14 2589.77 842.59 2590.88C841.96 2590.61 841.26 2590.46 840.5400000000001 2590.46C838.9100000000001 2590.46 837.45 2591.21 836.4800000000001 2592.38C835.9000000000001 2591.01 834.5500000000002 2590.06 832.9800000000001 2590.06C830.8800000000001 2590.06 829.1700000000002 2591.7799999999997 829.1700000000002 2593.92C829.1700000000002 2593.9300000000003 829.1700000000002 2593.9500000000003 829.1700000000002 2593.96C827.9200000000002 2594.32 827.0000000000002 2595.48 827.0000000000002 2596.86Z " fill="#ffffff" fill-opacity="1" transform="matrix(1,0,0,1,-824,-2579)"></path><path id="SvgjsPath1061" d="M826 2584.5C826 2583.11929 827.11929 2582 828.5 2582C829.88071 2582 831 2583.11929 831 2584.5C831 2585.88071 829.88071 2587 828.5 2587C827.11929 2587 826 2585.88071 826 2584.5Z " fill="#ffffff" fill-opacity="1" transform="matrix(1,0,0,1,-824,-2579)"></path><path id="SvgjsPath1062" d="M844 2584C844 2582.89543 844.89543 2582 846 2582C847.10457 2582 848 2582.89543 848 2584C848 2585.10457 847.10457 2586 846 2586C844.89543 2586 844 2585.10457 844 2584Z " fill="#ffffff" fill-opacity="1" transform="matrix(1,0,0,1,-824,-2579)"></path><path id="SvgjsPath1063" d="M847 2580C847 2579.44772 847.44772 2579 848 2579C848.55228 2579 849 2579.44772 849 2580C849 2580.55228 848.55228 2581 848 2581C847.44772 2581 847 2580.55228 847 2580Z " fill="#ffffff" fill-opacity="1" transform="matrix(1,0,0,1,-824,-2579)"></path><path id="SvgjsPath1064" d="M832 2581C832 2580.44772 832.44772 2580 833 2580C833.55228 2580 834 2580.44772 834 2581C834 2581.55228 833.55228 2582 833 2582C832.44772 2582 832 2581.55228 832 2581Z " fill="#ffffff" fill-opacity="1" transform="matrix(1,0,0,1,-824,-2579)"></path></svg>