<svg id="SvgjsSvg1078" xmlns="http://www.w3.org/2000/svg" version="1.1" xmlns:xlink="http://www.w3.org/1999/xlink" xmlns:svgjs="http://svgjs.com/svgjs" width="23" height="26"><defs id="SvgjsDefs1079"></defs><path id="SvgjsPath1080" d="M535.87 6529.74C535.87 6528.0599999999995 534.85 6526.57 533.28 6525.95L528.14 6523.91C527.99 6523.849999999999 527.83 6523.86 527.68 6523.92C527.54 6523.99 527.43 6524.11 527.37 6524.25L526.08 6527.79L525.83 6527.06L526.23 6526.080000000001C526.3100000000001 6525.900000000001 526.29 6525.6900000000005 526.1800000000001 6525.530000000001C526.07 6525.370000000001 525.8800000000001 6525.280000000001 525.69 6525.280000000001L523.1800000000001 6525.280000000001C522.99 6525.280000000001 522.8000000000001 6525.370000000001 522.69 6525.530000000001C522.58 6525.6900000000005 522.5600000000001 6525.900000000001 522.6400000000001 6526.080000000001L523.0400000000001 6527.06L522.7900000000001 6527.79L521.5000000000001 6524.25C521.4400000000002 6524.11 521.3300000000002 6523.99 521.1900000000002 6523.92C521.0400000000002 6523.86 520.8800000000002 6523.85 520.7300000000001 6523.91L515.5900000000001 6525.95C514.0200000000001 6526.57 513.0000000000001 6528.0599999999995 513.0000000000001 6529.74L513.0000000000001 6533.849999999999C513.0000000000001 6534.169999999999 513.2600000000001 6534.429999999999 513.5900000000001 6534.429999999999L535.2800000000002 6534.429999999999C535.6100000000002 6534.429999999999 535.8700000000002 6534.169999999999 535.8700000000002 6533.849999999999ZM530.65 6518.47C530.86 6517.66 530.8 6517 530.48 6516.51C530.34 6516.29 530.1700000000001 6516.14 530.01 6516.04C530.01 6515.7699999999995 529.99 6515.39 529.92 6514.95C529.9699999999999 6514.429999999999 530.12 6511.53 528.3399999999999 6510.23C527.2299999999999 6509.429999999999 526.0099999999999 6509 524.79 6509C523.8 6509 522.8499999999999 6509.28 522.13 6509.79C521.48 6510.24 521.12 6510.74 520.93 6511.09C520.37 6511.110000000001 519.2099999999999 6511.33 518.6899999999999 6512.8C518.2099999999999 6514.1900000000005 518.5999999999999 6515.05 518.89 6515.45C518.87 6515.679999999999 518.86 6515.88 518.86 6516.04C518.7 6516.14 518.53 6516.29 518.39 6516.51C518.06 6517 518.01 6517.66 518.22 6518.47C518.62 6519.990000000001 519.5600000000001 6520.320000000001 520.0500000000001 6520.39C520.36 6520.990000000001 521.0300000000001 6522.2300000000005 521.71 6522.860000000001C521.98 6523.110000000001 522.33 6523.320000000001 522.75 6523.4800000000005C523.29 6523.6900000000005 523.85 6523.8 524.43 6523.8C525.02 6523.8 525.5799999999999 6523.6900000000005 526.12 6523.4800000000005C526.54 6523.320000000001 526.89 6523.110000000001 527.16 6522.860000000001C527.8399999999999 6522.2300000000005 528.51 6520.990000000001 528.8199999999999 6520.39C529.31 6520.320000000001 530.2499999999999 6519.990000000001 530.65 6518.47ZM532.74 6530.19L532.74 6532.009999999999C532.74 6532.329999999999 532.48 6532.589999999999 532.16 6532.589999999999L528.2199999999999 6532.589999999999C527.8899999999999 6532.589999999999 527.6299999999999 6532.329999999999 527.6299999999999 6532.009999999999L527.6299999999999 6530.19C527.6299999999999 6529.87 527.8899999999999 6529.61 528.2199999999999 6529.61L532.16 6529.61C532.48 6529.61 532.74 6529.87 532.74 6530.19Z " fill="#ffffff" fill-opacity="1" transform="matrix(1,0,0,1,-513,-6509)"></path></svg>