<svg id="SvgjsSvg1081" xmlns="http://www.w3.org/2000/svg" version="1.1" xmlns:xlink="http://www.w3.org/1999/xlink" xmlns:svgjs="http://svgjs.com/svgjs" width="20" height="24"><defs id="SvgjsDefs1082"></defs><path id="SvgjsPath1083" d="M1039.58 6516C1039.34 6515.46 1038.73 6515.08 1038.1399999999999 6515.08L1034.3899999999999 6515.08L1034.3899999999999 6514.33L1035.6 6514.33C1035.77 6514.33 1035.9099999999999 6514.25 1035.98 6514.12C1036.04 6513.98 1036.01 6513.82 1035.9 6513.69L1032.89 6510.169999999999C1032.8000000000002 6510.0599999999995 1032.66 6509.999999999999 1032.5200000000002 6509.999999999999C1032.38 6509.999999999999 1032.2400000000002 6510.0599999999995 1032.1500000000003 6510.169999999999L1029.1400000000003 6513.69C1029.0300000000004 6513.82 1029.0000000000002 6513.98 1029.0600000000004 6514.12C1029.1200000000003 6514.25 1029.2700000000004 6514.33 1029.4400000000005 6514.33L1030.6500000000005 6514.33L1030.6500000000005 6515.08L1026.9000000000005 6515.08C1026.3100000000006 6515.08 1025.7000000000005 6515.46 1025.4500000000005 6516L1023.1700000000005 6521.01C1023.1400000000006 6521.070000000001 1023.0000000000006 6521.34 1023.0000000000006 6521.570000000001L1023.0000000000006 6532.920000000001C1023.0000000000006 6533.330000000001 1023.3400000000006 6533.660000000001 1023.7500000000006 6533.660000000001L1041.2800000000007 6533.660000000001C1041.7000000000007 6533.660000000001 1042.0400000000006 6533.330000000001 1042.0400000000006 6532.920000000001L1042.0400000000006 6521.570000000001C1042.0400000000006 6521.43 1041.9000000000005 6521.070000000001 1041.8700000000006 6521.01ZM1030.65 6516.79L1030.65 6517.49C1030.65 6517.7699999999995 1030.88 6518 1031.17 6518L1033.8700000000001 6518C1034.16 6518 1034.39 6517.77 1034.39 6517.49L1034.39 6516.79L1038.0400000000002 6516.79L1039.88 6520.82L1025.16 6520.82L1027 6516.79Z " fill="#ffffff" fill-opacity="1" transform="matrix(1,0,0,1,-1023,-6510)"></path></svg>