<svg id="SvgjsSvg1033" xmlns="http://www.w3.org/2000/svg" version="1.1" xmlns:xlink="http://www.w3.org/1999/xlink" xmlns:svgjs="http://svgjs.com/svgjs" width="14" height="9"><defs id="SvgjsDefs1034"></defs><path id="SvgjsPath1035" d="M1285.05 1543C1284.76 1543 1284.51 1543.1 1284.31 1543.31C1284.1 1543.51 1284 1543.76 1284 1544.05L1284 1550.35C1284 1550.6399999999999 1284.1 1550.8899999999999 1284.31 1551.09C1284.51 1551.3 1284.76 1551.3999999999999 1285.05 1551.3999999999999L1296.25 1551.3999999999999C1296.54 1551.3999999999999 1296.79 1551.3 1297 1551.09C1297.2 1550.8899999999999 1297.3 1550.6399999999999 1297.3 1550.35L1297.3 1544.05C1297.3 1543.76 1297.2 1543.51 1297 1543.31C1296.79 1543.1 1296.54 1543 1296.25 1543ZM1296.28 1543.7C1296.29 1543.7 1296.3 1543.7 1296.31 1543.7L1291.04 1547.22C1290.94 1547.29 1290.81 1547.32 1290.6499999999999 1547.32C1290.4899999999998 1547.32 1290.36 1547.29 1290.2599999999998 1547.22L1284.9899999999998 1543.7C1284.9999999999998 1543.7 1285.0099999999998 1543.7 1285.0199999999998 1543.7C1285.0299999999997 1543.7 1285.0399999999997 1543.7 1285.0499999999997 1543.7C1285.0599999999997 1543.7 1296.2699999999998 1543.7 1296.2799999999997 1543.7ZM1285.05 1550.7C1284.95 1550.7 1284.87 1550.66 1284.8 1550.6000000000001C1284.73 1550.5300000000002 1284.7 1550.45 1284.7 1550.3500000000001L1284.7 1544.3500000000001L1289.8700000000001 1547.8000000000002C1289.98 1547.8700000000001 1290.1000000000001 1547.9300000000003 1290.24 1547.9600000000003C1290.3700000000001 1548.0000000000002 1290.51 1548.0200000000002 1290.65 1548.0200000000002C1290.7900000000002 1548.0200000000002 1290.93 1548.0000000000002 1291.0600000000002 1547.9600000000003C1291.2000000000003 1547.9300000000003 1291.3200000000002 1547.8700000000003 1291.42 1547.8000000000002L1296.6000000000001 1544.3500000000001L1296.6000000000001 1550.3500000000001C1296.6000000000001 1550.45 1296.5700000000002 1550.5300000000002 1296.5000000000002 1550.6000000000001C1296.4300000000003 1550.66 1296.3500000000001 1550.7 1296.2500000000002 1550.7Z " fill="#8c8c8c" fill-opacity="1" transform="matrix(1,0,0,1,-1284,-1543)"></path></svg>