<svg id="SvgjsSvg1030" xmlns="http://www.w3.org/2000/svg" version="1.1" xmlns:xlink="http://www.w3.org/1999/xlink" xmlns:svgjs="http://svgjs.com/svgjs" width="14" height="14"><defs id="SvgjsDefs1031"></defs><path id="SvgjsPath1032" d="M1294.03 1472.64C1293.72 1472.5900000000001 1293.3999999999999 1472.5300000000002 1293.08 1472.45C1292.76 1472.3600000000001 1292.4299999999998 1472.26 1292.11 1472.13C1291.78 1472 1291.4499999999998 1471.8500000000001 1291.12 1471.68C1290.81 1471.53 1290.5 1471.3500000000001 1290.1999999999998 1471.16C1289.8999999999999 1470.98 1289.6 1470.77 1289.2999999999997 1470.5500000000002C1289.0099999999998 1470.3300000000002 1288.7199999999998 1470.1000000000001 1288.4399999999998 1469.8600000000001C1288.1499999999999 1469.6100000000001 1287.87 1469.3600000000001 1287.61 1469.0900000000001C1287.34 1468.8300000000002 1287.09 1468.5500000000002 1286.84 1468.2600000000002C1286.6 1467.9800000000002 1286.37 1467.6900000000003 1286.1499999999999 1467.4000000000003C1285.9299999999998 1467.1000000000004 1285.7299999999998 1466.8000000000004 1285.54 1466.5000000000002C1285.35 1466.1900000000003 1285.18 1465.8900000000003 1285.02 1465.5800000000002C1284.85 1465.2500000000002 1284.71 1464.92 1284.58 1464.5900000000001C1284.4499999999998 1464.2600000000002 1284.35 1463.94 1284.26 1463.6200000000001C1284.18 1463.2900000000002 1284.11 1462.98 1284.07 1462.67C1284.02 1462.3500000000001 1284 1462.0500000000002 1284 1461.74C1284 1461.55 1284.04 1461.35 1284.12 1461.16C1284.1999999999998 1460.97 1284.3 1460.8000000000002 1284.4099999999999 1460.64C1284.5199999999998 1460.48 1284.6299999999999 1460.3300000000002 1284.7499999999998 1460.21C1284.8699999999997 1460.08 1284.9699999999998 1459.98 1285.0499999999997 1459.91C1285.1599999999996 1459.8000000000002 1285.2899999999997 1459.7 1285.4299999999998 1459.5900000000001C1285.57 1459.4800000000002 1285.7199999999998 1459.38 1285.87 1459.3000000000002C1286.02 1459.2100000000003 1286.1699999999998 1459.14 1286.32 1459.0800000000002C1286.47 1459.0300000000002 1286.61 1459.0000000000002 1286.74 1459.0000000000002C1286.86 1459.0000000000002 1287 1459.0400000000002 1287.16 1459.1300000000003C1287.3100000000002 1459.2200000000003 1287.49 1459.3500000000004 1287.69 1459.5400000000004C1287.8300000000002 1459.6700000000005 1287.98 1459.8300000000004 1288.14 1460.0000000000005C1288.3000000000002 1460.1800000000005 1288.46 1460.3800000000006 1288.63 1460.5900000000004C1288.68 1460.6500000000003 1288.7700000000002 1460.7700000000004 1288.9 1460.9500000000003C1289.0300000000002 1461.1300000000003 1289.16 1461.3200000000002 1289.2900000000002 1461.5400000000002C1289.4300000000003 1461.7600000000002 1289.5500000000002 1461.9800000000002 1289.66 1462.2000000000003C1289.76 1462.4300000000003 1289.8100000000002 1462.6200000000003 1289.8100000000002 1462.7700000000002C1289.8100000000002 1463.0300000000002 1289.6900000000003 1463.2500000000002 1289.4500000000003 1463.4400000000003C1289.2100000000003 1463.6300000000003 1288.9300000000003 1463.8300000000004 1288.6200000000003 1464.0200000000002C1288.5100000000004 1464.0900000000001 1288.3900000000003 1464.1600000000003 1288.2700000000004 1464.2300000000002C1288.1600000000005 1464.3100000000002 1288.0600000000004 1464.3800000000003 1287.9700000000005 1464.4500000000003C1287.8700000000006 1464.5300000000002 1287.8100000000004 1464.5900000000004 1287.7800000000004 1464.6300000000003C1287.7500000000005 1464.6700000000003 1287.7400000000005 1464.6900000000003 1287.7400000000005 1464.7000000000003C1287.9000000000005 1465.1100000000004 1288.1400000000006 1465.5200000000002 1288.4500000000005 1465.9600000000003C1288.7600000000004 1466.3900000000003 1289.1100000000006 1466.8000000000002 1289.5000000000005 1467.1900000000003C1289.8900000000006 1467.5800000000004 1290.3000000000004 1467.9300000000003 1290.7400000000005 1468.2400000000002C1291.1700000000005 1468.5600000000002 1291.5900000000004 1468.8000000000002 1291.9900000000005 1468.9600000000003C1292.0000000000005 1468.9600000000003 1292.0300000000004 1468.9400000000003 1292.0700000000004 1468.9100000000003C1292.1100000000004 1468.8900000000003 1292.1700000000003 1468.8300000000004 1292.2400000000005 1468.7300000000002C1292.3100000000004 1468.6400000000003 1292.3900000000006 1468.5400000000002 1292.4600000000005 1468.4300000000003C1292.5300000000004 1468.3100000000004 1292.6100000000006 1468.1900000000003 1292.6800000000005 1468.0700000000004C1292.8700000000006 1467.7600000000004 1293.0600000000006 1467.4900000000005 1293.2500000000005 1467.2400000000005C1293.4400000000005 1467.0000000000005 1293.6700000000005 1466.8800000000006 1293.9300000000005 1466.8800000000006C1294.0800000000006 1466.8800000000006 1294.2700000000004 1466.9300000000005 1294.5000000000005 1467.0400000000006C1294.7200000000005 1467.1400000000006 1294.9400000000005 1467.2600000000007 1295.1500000000005 1467.4000000000005C1295.3700000000006 1467.5300000000007 1295.5700000000006 1467.6700000000005 1295.7400000000005 1467.8000000000006C1295.9200000000005 1467.9300000000007 1296.0400000000004 1468.0200000000007 1296.1100000000004 1468.0600000000006C1296.3200000000004 1468.2300000000007 1296.5100000000004 1468.3900000000006 1296.6900000000003 1468.5500000000006C1296.8700000000003 1468.7100000000007 1297.0300000000002 1468.8700000000006 1297.1600000000003 1469.0100000000007C1297.3400000000004 1469.2100000000007 1297.4800000000002 1469.3900000000008 1297.5600000000004 1469.5400000000006C1297.6500000000003 1469.6900000000007 1297.6900000000005 1469.8300000000006 1297.6900000000005 1469.9600000000007C1297.6900000000005 1470.0900000000008 1297.6700000000005 1470.2300000000007 1297.6100000000006 1470.3800000000008C1297.5500000000006 1470.5300000000009 1297.4800000000005 1470.6800000000007 1297.4000000000005 1470.8300000000008C1297.3100000000006 1470.980000000001 1297.2100000000005 1471.1300000000008 1297.1000000000006 1471.270000000001C1297.0000000000007 1471.410000000001 1296.8900000000006 1471.5400000000009 1296.7900000000006 1471.650000000001C1296.7200000000007 1471.730000000001 1296.6200000000006 1471.830000000001 1296.4900000000007 1471.950000000001C1296.3700000000008 1472.0700000000008 1296.2200000000007 1472.180000000001 1296.0600000000006 1472.3000000000009C1295.8900000000006 1472.4100000000008 1295.7200000000007 1472.500000000001 1295.5300000000007 1472.5800000000008C1295.3400000000006 1472.6600000000008 1295.1500000000005 1472.7000000000007 1294.9500000000007 1472.7000000000007C1294.6500000000008 1472.7000000000007 1294.3400000000008 1472.6800000000007 1294.0300000000007 1472.6400000000008ZM1286.25 1459.86C1286.03 1459.9799999999998 1285.78 1460.1599999999999 1285.51 1460.4099999999999C1285.26 1460.6499999999999 1285.06 1460.8899999999999 1284.91 1461.12C1284.76 1461.36 1284.69 1461.57 1284.69 1461.7399999999998C1284.69 1462.8899999999999 1285.01 1464.0799999999997 1285.65 1465.2899999999997C1286.2800000000002 1466.5099999999998 1287.1000000000001 1467.6099999999997 1288.0900000000001 1468.6099999999997C1289.0900000000001 1469.6099999999997 1290.19 1470.4199999999996 1291.41 1471.0599999999997C1292.6200000000001 1471.6999999999998 1293.8000000000002 1472.0199999999998 1294.95 1472.0199999999998C1295.13 1472.0199999999998 1295.3400000000001 1471.9399999999998 1295.5800000000002 1471.7899999999997C1295.8100000000002 1471.6399999999996 1296.0500000000002 1471.4399999999998 1296.2800000000002 1471.1899999999998C1296.5300000000002 1470.9199999999998 1296.7100000000003 1470.6699999999998 1296.8300000000002 1470.4399999999998C1296.95 1470.2199999999998 1297.0100000000002 1470.0599999999997 1297.0100000000002 1469.9599999999998C1297.0000000000002 1469.8999999999999 1296.8900000000003 1469.7499999999998 1296.6900000000003 1469.5099999999998C1296.4800000000002 1469.2599999999998 1296.1300000000003 1468.9499999999998 1295.6400000000003 1468.5699999999997C1295.4300000000003 1468.4099999999996 1295.2300000000002 1468.2599999999998 1295.0400000000004 1468.1399999999996C1294.8500000000004 1468.0099999999995 1294.6800000000005 1467.9099999999996 1294.5300000000004 1467.8199999999997C1294.3800000000003 1467.7399999999998 1294.2600000000004 1467.6799999999996 1294.1500000000003 1467.6299999999997C1294.0500000000004 1467.5899999999997 1293.9700000000003 1467.5699999999997 1293.9300000000003 1467.5599999999997C1293.9200000000003 1467.5699999999997 1293.9000000000003 1467.5799999999997 1293.8600000000004 1467.6099999999997C1293.8200000000004 1467.6399999999996 1293.7600000000004 1467.6999999999996 1293.6900000000003 1467.7999999999997C1293.6200000000003 1467.8799999999997 1293.5500000000002 1467.9799999999998 1293.4800000000002 1468.0899999999997C1293.4100000000003 1468.1999999999996 1293.3400000000001 1468.3199999999997 1293.2600000000002 1468.4299999999996C1293.0700000000002 1468.7399999999996 1292.88 1469.0199999999995 1292.6800000000003 1469.2699999999995C1292.4900000000002 1469.5199999999995 1292.2600000000002 1469.6399999999994 1291.9900000000002 1469.6399999999994C1291.9500000000003 1469.6399999999994 1291.9100000000003 1469.6399999999994 1291.8700000000003 1469.6299999999994C1291.8300000000004 1469.6299999999994 1291.7900000000004 1469.6099999999994 1291.7500000000005 1469.5999999999995C1291.3000000000004 1469.4199999999994 1290.8300000000004 1469.1599999999994 1290.3600000000004 1468.8199999999995C1289.8900000000003 1468.4799999999996 1289.4400000000003 1468.0999999999995 1289.0200000000004 1467.6799999999994C1288.5900000000004 1467.2499999999993 1288.2100000000005 1466.8099999999995 1287.8800000000003 1466.3299999999995C1287.5400000000004 1465.8599999999994 1287.2800000000004 1465.3999999999994 1287.1000000000004 1464.9499999999994C1287.0600000000004 1464.8499999999995 1287.0500000000004 1464.7099999999994 1287.0700000000004 1464.5499999999993C1287.0900000000004 1464.3899999999992 1287.2100000000005 1464.2099999999994 1287.4200000000003 1464.0099999999993C1287.5400000000002 1463.9099999999994 1287.6700000000003 1463.8099999999993 1287.8200000000004 1463.7199999999993C1287.9700000000005 1463.6199999999994 1288.1200000000003 1463.5199999999993 1288.2700000000004 1463.4299999999994C1288.3800000000003 1463.3599999999994 1288.4900000000005 1463.2899999999993 1288.6000000000004 1463.2199999999993C1288.7100000000003 1463.1499999999994 1288.8100000000004 1463.0799999999992 1288.9000000000003 1463.0099999999993C1289.0000000000002 1462.9299999999994 1289.0600000000004 1462.8699999999992 1289.0900000000004 1462.8299999999992C1289.1200000000003 1462.7899999999993 1289.1300000000003 1462.7699999999993 1289.1300000000003 1462.7699999999993C1289.1300000000003 1462.7199999999993 1289.1100000000004 1462.6499999999994 1289.0600000000004 1462.5399999999993C1289.0200000000004 1462.4399999999994 1288.9500000000005 1462.3099999999993 1288.8700000000003 1462.1599999999992C1288.7900000000004 1462.009999999999 1288.6800000000003 1461.8399999999992 1288.5600000000004 1461.6599999999992C1288.4300000000003 1461.4699999999991 1288.2900000000004 1461.269999999999 1288.1300000000003 1461.0499999999993C1287.7400000000002 1460.5599999999993 1287.4300000000003 1460.2199999999993 1287.1900000000003 1460.0099999999993C1286.9500000000003 1459.7999999999993 1286.8000000000002 1459.6999999999994 1286.7300000000002 1459.6899999999994C1286.6400000000003 1459.6899999999994 1286.4800000000002 1459.7499999999993 1286.2500000000002 1459.8599999999994Z " fill="#8c8c8c" fill-opacity="1" transform="matrix(1,0,0,1,-1284,-1459)"></path></svg>