<?xml version="1.0" encoding="UTF-8" standalone="no"?>
<svg width="38px" height="38px" viewBox="0 0 38 38" version="1.1" xmlns="http://www.w3.org/2000/svg" xmlns:xlink="http://www.w3.org/1999/xlink">
    <!-- Generator: Sketch 41 (35326) - http://www.bohemiancoding.com/sketch -->
    <title>phone-icon</title>
    <desc>Created with Sketch.</desc>
    <defs></defs>
    <g id="Page-1" stroke="none" stroke-width="1" fill="none" fill-rule="evenodd">
        <g id="phone-icon">
            <path d="M2,19 C2,9.61115475 9.61115475,2 19,2 C28.3888453,2 36,9.61115475 36,19 C36,28.3888453 28.3888453,36 19,36 C9.61115475,36 2,28.3888453 2,19 Z M0,19 C0,29.4934147 8.50658525,38 19,38 C29.4934147,38 38,29.4934147 38,19 C38,8.50658525 29.4934147,0 19,0 C8.50658525,0 0,8.50658525 0,19 Z" id="SvgjsPath1007" fill="#F7931E"></path>
            <path d="M6,19 C6,11.8203 11.8203,6 19,6 C26.1797,6 32,11.8203 32,19 C32,26.1797 26.1797,32 19,32 C11.8203,32 6,26.1797 6,19 Z" id="SvgjsPath1010" fill="#FFAD00"></path>
            <path d="M24.99,22.69 C25.02,22.87 24.96,23.02 24.83,23.16 L23.28,24.7 C23.21,24.77 23.12,24.84 23.01,24.9 C22.9,24.95 22.79,24.98 22.68,25 C22.67,25 22.65,25 22.61,25.01 L22.46,25.01 C22.31,25.01 22.07,24.99 21.74,24.94 C21.41,24.89 21.01,24.76 20.53,24.56 C20.05,24.36 19.51,24.07 18.9,23.67 C18.3,23.27 17.65,22.73 16.97,22.04 C16.43,21.5 15.98,20.99 15.62,20.5 C15.26,20.01 14.98,19.55 14.76,19.14 C14.54,18.72 14.38,18.35 14.27,18.01 C14.16,17.67 14.09,17.38 14.05,17.13 C14.01,16.89 13.99,16.69 14,16.55 C14.01,16.41 14.01,16.34 14.01,16.32 C14.03,16.21 14.06,16.1 14.12,15.99 C14.17,15.88 14.24,15.78 14.32,15.71 L15.87,14.16 C15.97,14.05 16.1,14 16.24,14 C16.34,14 16.43,14.03 16.51,14.09 C16.58,14.15 16.65,14.22 16.7,14.3 L17.95,16.67 C18.02,16.8 18.04,16.93 18.01,17.08 C17.98,17.23 17.91,17.35 17.81,17.45 L17.24,18.02 C17.22,18.04 17.21,18.07 17.2,18.1 C17.19,18.14 17.18,18.16 17.18,18.19 C17.21,18.35 17.28,18.54 17.39,18.75 C17.48,18.93 17.63,19.16 17.82,19.43 C18.02,19.7 18.29,20.01 18.65,20.36 C19,20.72 19.31,20.99 19.58,21.19 C19.85,21.39 20.08,21.54 20.26,21.63 C20.44,21.72 20.58,21.78 20.68,21.8 L20.83,21.83 C20.84,21.83 20.87,21.82 20.9,21.81 C20.94,21.8 20.96,21.78 20.98,21.77 L21.64,21.09 C21.78,20.97 21.94,20.91 22.13,20.91 C22.26,20.91 22.37,20.93 22.44,20.98 L22.46,20.98 L24.7,22.31 C24.87,22.41 24.96,22.53 24.99,22.69 L24.99,22.69 Z" id="SvgjsPath1011" fill="#FFFFFF"></path>
        </g>
    </g>
</svg>