<?xml version="1.0" encoding="UTF-8" standalone="no"?>
<svg width="71px" height="71px" viewBox="0 0 71 71" version="1.1" xmlns="http://www.w3.org/2000/svg" xmlns:xlink="http://www.w3.org/1999/xlink">
    <!-- Generator: Sketch 41 (35326) - http://www.bohemiancoding.com/sketch -->
    <title>rst-logo</title>
    <desc>Created with Sketch.</desc>
    <defs></defs>
    <g id="Page-1" stroke="none" stroke-width="1" fill="none" fill-rule="evenodd">
        <g id="rst-logo">
            <path d="M70.48,35.24 C70.48,15.7781875 54.7050424,0 35.24,0 C15.7815729,0 0,15.7815729 0,35.24 C0,54.7050424 15.7781875,70.48 35.24,70.48 C54.7084271,70.48 70.48,54.7084271 70.48,35.24 Z M67.48,35.24 C67.48,53.0515729 53.0515729,67.48 35.24,67.48 C17.4349043,67.48 3,53.0480507 3,35.24 C3,17.4384271 17.4384271,3 35.24,3 C53.0480507,3 67.48,17.4349043 67.48,35.24 Z" id="SvgjsPath1100" fill="#FF9F00"></path>
            <path d="M21.9,32.16 C21.7,31.96 21.46,31.8 21.19,31.68 C20.92,31.56 20.62,31.5 20.32,31.5 L17.5,31.5 L17.5,35.33 L17.51,35.33 L17.51,35.98 L20.3,35.98 C20.61,35.98 20.9,35.92 21.17,35.81 C21.45,35.7 21.69,35.54 21.89,35.34 C22.1,35.14 22.26,34.9 22.38,34.63 C22.5,34.36 22.56,34.06 22.56,33.76 C22.56,33.45 22.5,33.16 22.38,32.89 C22.26,32.61 22.1,32.37 21.9,32.16" id="SvgjsPath1101" fill="#F7931E"></path>
            <path d="M43.97,41.3 L42.53,36.98 L41.37,38.06 C40.84,38.56 40.23,38.94 39.55,39.21 C38.86,39.47 38.13,39.61 37.36,39.61 C36.59,39.61 35.87,39.47 35.19,39.21 C34.51,38.94 33.91,38.56 33.38,38.06 C32.88,37.6 32.5,37.07 32.23,36.48 C31.97,35.89 31.84,35.27 31.84,34.62 C31.84,33.3 32.35,32.15 33.38,31.18 C33.91,30.68 34.51,30.3 35.19,30.03 C35.87,29.77 36.59,29.63 37.36,29.63 C38.13,29.63 38.86,29.76 39.53,30.02 C40.21,30.28 40.81,30.65 41.35,31.15 L42.5,32.23 L43.94,27.91 L43.35,27.47 C41.6,26.12 39.61,25.44 37.36,25.44 C36.11,25.44 34.92,25.67 33.78,26.11 C32.64,26.56 31.62,27.21 30.73,28.06 C29.81,28.94 29.09,29.94 28.6,31.06 C28.1,32.18 27.85,33.37 27.85,34.62 C27.85,35.87 28.1,37.06 28.6,38.19 C29.09,39.32 29.81,40.33 30.73,41.2 C31.62,42.04 32.64,42.68 33.78,43.13 C34.92,43.57 36.11,43.8 37.36,43.8 C39.62,43.8 41.63,43.12 43.38,41.77 L43.97,41.3 Z M26.05,35.33 C26.32,34.67 26.46,33.98 26.46,33.29 C26.46,32.52 26.31,31.78 26.01,31.09 C25.72,30.41 25.31,29.81 24.8,29.31 C24.29,28.8 23.69,28.4 23.01,28.1 C22.32,27.81 21.58,27.66 20.81,27.66 L14.59,27.66 L14.59,41.54 L18,41.54 L18,38.94 L20.81,38.94 C21.59,38.94 22.35,38.79 23.05,38.48 C23.75,38.17 24.38,37.72 24.93,37.13 C25.4,36.6 25.78,36 26.05,35.33 L26.05,35.33 Z M57.31,31.03 L57.31,27.62 L45.85,27.62 L45.85,31.03 L49.88,31.03 L49.88,41.26 L53.3,41.26 L53.3,31.03 L57.31,31.03 Z M35.91,6.5 C51.6,6.5 64.32,19.22 64.32,34.91 C64.32,50.6 51.6,63.32 35.91,63.32 C20.22,63.32 7.5,50.6 7.5,34.91 C7.5,19.22 20.22,6.5 35.91,6.5 Z" id="SvgjsPath1102" fill="#FF9F00"></path>
        </g>
    </g>
</svg>