<svg id="SvgjsSvg1103" xmlns="http://www.w3.org/2000/svg" version="1.1" xmlns:xlink="http://www.w3.org/1999/xlink" xmlns:svgjs="http://svgjs.com/svgjs" width="39" height="39"><defs id="SvgjsDefs1104"></defs><path id="SvgjsPath1105" d="M1014.92 11189.79L1013.93 11186.84L1013.14 11187.58C1012.78 11187.92 1012.36 11188.18 1011.89 11188.36C1011.43 11188.54 1010.93 11188.630000000001 1010.4 11188.630000000001C1009.88 11188.630000000001 1009.38 11188.54 1008.92 11188.36C1008.4499999999999 11188.18 1008.04 11187.92 1007.68 11187.58C1007.3399999999999 11187.26 1007.0799999999999 11186.9 1006.9 11186.5C1006.72 11186.09 1006.63 11185.67 1006.63 11185.22C1006.63 11184.32 1006.98 11183.539999999999 1007.68 11182.869999999999C1008.04 11182.529999999999 1008.4499999999999 11182.269999999999 1008.92 11182.089999999998C1009.38 11181.899999999998 1009.88 11181.809999999998 1010.4 11181.809999999998C1010.93 11181.809999999998 1011.42 11181.899999999998 1011.89 11182.079999999998C1012.35 11182.249999999998 1012.76 11182.509999999998 1013.12 11182.849999999999L1013.91 11183.589999999998L1014.9 11180.639999999998L1014.49 11180.339999999998C1013.3 11179.409999999998 1011.94 11178.949999999999 1010.4 11178.949999999999C1009.55 11178.949999999999 1008.73 11179.099999999999 1007.9499999999999 11179.409999999998C1007.17 11179.709999999997 1006.4799999999999 11180.159999999998 1005.8699999999999 11180.739999999998C1005.2399999999999 11181.339999999998 1004.7499999999999 11182.019999999999 1004.4099999999999 11182.789999999997C1004.0699999999998 11183.559999999998 1003.8999999999999 11184.369999999997 1003.8999999999999 11185.219999999998C1003.8999999999999 11186.079999999998 1004.0699999999998 11186.889999999998 1004.4099999999999 11187.669999999998C1004.7499999999999 11188.439999999999 1005.2399999999999 11189.119999999999 1005.8699999999999 11189.719999999998C1006.4799999999999 11190.299999999997 1007.1699999999998 11190.729999999998 1007.9499999999999 11191.039999999997C1008.7299999999999 11191.339999999997 1009.55 11191.499999999996 1010.4 11191.499999999996C1011.9499999999999 11191.499999999996 1013.3199999999999 11191.029999999997 1014.51 11190.109999999997ZM1002.67 11185.71C1002.86 11185.259999999998 1002.9499999999999 11184.789999999999 1002.9499999999999 11184.32C1002.9499999999999 11183.789999999999 1002.8499999999999 11183.279999999999 1002.65 11182.81C1002.4499999999999 11182.35 1002.17 11181.939999999999 1001.8199999999999 11181.59C1001.4699999999999 11181.25 1001.06 11180.97 1000.5899999999999 11180.77C1000.1299999999999 11180.57 999.6199999999999 11180.460000000001 999.0899999999999 11180.460000000001L994.8499999999999 11180.460000000001L994.8499999999999 11189.960000000001L997.17 11189.960000000001L997.17 11188.18L999.0899999999999 11188.18C999.6299999999999 11188.18 1000.1399999999999 11188.07 1000.6299999999999 11187.86C1001.0999999999999 11187.650000000001 1001.5299999999999 11187.34 1001.9099999999999 11186.94C1002.2299999999999 11186.58 1002.4899999999999 11186.16 1002.6699999999998 11185.710000000001ZM1024.03 11182.77L1024.03 11180.44L1016.1999999999999 11180.44L1016.1999999999999 11182.77L1018.9599999999999 11182.77L1018.9599999999999 11189.76L1021.29 11189.76L1021.29 11182.77ZM1009.41 11166C1020.13 11166 1028.82 11174.7 1028.82 11185.42C1028.82 11196.15 1020.1299999999999 11204.84 1009.41 11204.84C998.6899999999999 11204.84 990 11196.15 990 11185.42C990 11174.7 998.69 11166 1009.41 11166Z " fill="#ffffff" fill-opacity="1" transform="matrix(1,0,0,1,-990,-11166)"></path></svg>