<svg id="SvgjsSvg1036" xmlns="http://www.w3.org/2000/svg" version="1.1" xmlns:xlink="http://www.w3.org/1999/xlink" xmlns:svgjs="http://svgjs.com/svgjs" width="9" height="10.579999999999927"><defs id="SvgjsDefs1037"><filter id="SvgjsFilter1039" width="200%" height="200%" x="-50%" y="-50%"><feGaussianBlur id="SvgjsFeGaussianBlur1040" stdDeviation="0 " result="SvgjsFeGaussianBlur1040Out" in="SourceGraphic"></feGaussianBlur></filter></defs><path id="SvgjsPath1038" d="M1293.28 1642.4C1292.54 1643.38 1291.94 1644.48 1291.48 1645.67L1290.89 1647.16L1289.8700000000001 1645.9C1289.66 1645.65 1289.43 1645.39 1289.18 1645.15C1288.92 1644.9 1288.71 1644.69 1288.53 1644.5300000000002C1288.35 1644.3700000000001 1288.09 1644.15 1287.76 1643.8700000000001C1287.44 1643.5900000000001 1287.18 1643.3600000000001 1287 1643.19L1287.93 1641.6100000000001C1288.05 1641.71 1288.29 1641.92 1288.63 1642.23C1288.98 1642.54 1289.2900000000002 1642.82 1289.5700000000002 1643.06C1289.8400000000001 1643.31 1290.1000000000001 1643.54 1290.3200000000002 1643.75C1290.8400000000001 1642.75 1291.4900000000002 1641.8 1292.2800000000002 1640.9C1293.0800000000002 1640 1294.0300000000002 1639.0400000000002 1295.14 1638L1296 1639.43C1294.92 1640.42 1294.01 1641.42 1293.28 1642.4Z " fill="#66885e" fill-opacity="1" filter="url(#SvgjsFilter1039)" transform="matrix(1,0,0,1,-1287,-1637)"></path><path id="SvgjsPath1041" d="M1293.28 1641.4C1292.54 1642.38 1291.94 1643.48 1291.48 1644.67L1290.89 1646.16L1289.8700000000001 1644.9C1289.66 1644.65 1289.43 1644.39 1289.18 1644.15C1288.92 1643.9 1288.71 1643.69 1288.53 1643.5300000000002C1288.35 1643.3700000000001 1288.09 1643.15 1287.76 1642.8700000000001C1287.44 1642.5900000000001 1287.18 1642.3600000000001 1287 1642.19L1287.93 1640.6100000000001C1288.05 1640.71 1288.29 1640.92 1288.63 1641.23C1288.98 1641.54 1289.2900000000002 1641.82 1289.5700000000002 1642.06C1289.8400000000001 1642.31 1290.1000000000001 1642.54 1290.3200000000002 1642.75C1290.8400000000001 1641.75 1291.4900000000002 1640.8 1292.2800000000002 1639.9C1293.0800000000002 1639 1294.0300000000002 1638.0400000000002 1295.14 1637L1296 1638.43C1294.92 1639.42 1294.01 1640.42 1293.28 1641.4Z " fill="#ffffff" fill-opacity="1" transform="matrix(1,0,0,1,-1287,-1637)"></path></svg>