<svg id="SvgjsSvg1027" xmlns="http://www.w3.org/2000/svg" version="1.1" xmlns:xlink="http://www.w3.org/1999/xlink" xmlns:svgjs="http://svgjs.com/svgjs" width="12" height="13"><defs id="SvgjsDefs1028"></defs><path id="SvgjsPath1029" d="M1265.37 1096.87C1264.3899999999999 1098.1799999999998 1263.59 1099.6299999999999 1262.9699999999998 1101.2299999999998L1262.1899999999998 1103.2099999999998L1260.82 1101.5399999999997C1260.54 1101.1899999999998 1260.24 1100.8599999999997 1259.8999999999999 1100.5299999999997C1259.56 1100.1999999999998 1259.28 1099.9299999999998 1259.03 1099.7099999999998C1258.79 1099.4899999999998 1258.45 1099.1999999999998 1258.02 1098.8299999999997C1257.58 1098.4499999999996 1257.24 1098.1499999999996 1257 1097.9199999999996L1258.24 1095.8099999999997C1258.4 1095.9499999999998 1258.71 1096.2299999999998 1259.18 1096.6399999999996C1259.64 1097.0499999999997 1260.0600000000002 1097.4199999999996 1260.42 1097.7499999999995C1260.79 1098.0799999999995 1261.13 1098.3899999999996 1261.43 1098.6599999999996C1262.1200000000001 1097.3299999999997 1262.99 1096.0699999999997 1264.05 1094.8699999999997C1265.1 1093.6699999999996 1266.3799999999999 1092.3799999999997 1267.86 1090.9999999999998L1269 1092.8999999999999C1267.55 1094.2299999999998 1266.34 1095.55 1265.37 1096.87Z " fill="#5faa33" fill-opacity="1" transform="matrix(1,0,0,1,-1257,-1091)"></path></svg>